<mxfile host="Electron" modified="2024-04-02T15:51:20.674Z" agent="Mozilla/5.0 (Windows NT 10.0; Win64; x64) AppleWebKit/537.36 (KHTML, like Gecko) draw.io/24.1.0 Chrome/120.0.6099.109 Electron/28.1.0 Safari/537.36" version="24.1.0" etag="hMD68IjEI3xu7OzklQOG" type="device">
  <diagram id="pmx0nbKnnqEiW7A9MclD" name="Página-1">
    <mxGraphModel dx="1366" dy="813" grid="1" gridSize="10" guides="1" tooltips="1" connect="1" arrows="1" fold="1" page="1" pageScale="1" pageWidth="1169" pageHeight="1654" math="0" shadow="0">
      <root>
        <mxCell id="0" />
        <mxCell id="1" parent="0" />
        <mxCell id="lwbYK_OGMi3TOcyeufu5-29" value="" style="rounded=0;whiteSpace=wrap;html=1;dashed=1;dashPattern=8 8;fillColor=none;strokeColor=#1168bd;allowArrows=1;" vertex="1" parent="1">
          <mxGeometry x="210" y="870" width="500" height="480" as="geometry" />
        </mxCell>
        <mxCell id="lwbYK_OGMi3TOcyeufu5-1" value="&lt;font color=&quot;#ffffff&quot;&gt;Aluno&lt;/font&gt;" style="shape=actor;whiteSpace=wrap;html=1;fillColor=#08427b;" vertex="1" parent="1">
          <mxGeometry x="140" y="40" width="140" height="160" as="geometry" />
        </mxCell>
        <mxCell id="lwbYK_OGMi3TOcyeufu5-4" value="" style="endArrow=none;dashed=1;html=1;rounded=0;startArrow=blockThin;startFill=1;entryX=0.5;entryY=1;entryDx=0;entryDy=0;strokeColor=#707070;exitX=0.5;exitY=0;exitDx=0;exitDy=0;" edge="1" parent="1" source="lwbYK_OGMi3TOcyeufu5-6" target="lwbYK_OGMi3TOcyeufu5-1">
          <mxGeometry width="50" height="50" relative="1" as="geometry">
            <mxPoint x="213" y="280" as="sourcePoint" />
            <mxPoint x="210" y="210" as="targetPoint" />
          </mxGeometry>
        </mxCell>
        <mxCell id="lwbYK_OGMi3TOcyeufu5-5" value="&lt;font color=&quot;#707070&quot; style=&quot;font-size: 9px;&quot;&gt;Faz posts&lt;br&gt;Controla presença&lt;/font&gt;&lt;div style=&quot;font-size: 9px;&quot;&gt;&lt;font color=&quot;#707070&quot; style=&quot;font-size: 9px;&quot;&gt;Conversa com outros alunos&lt;/font&gt;&lt;/div&gt;" style="edgeLabel;html=1;align=center;verticalAlign=middle;resizable=0;points=[];" vertex="1" connectable="0" parent="lwbYK_OGMi3TOcyeufu5-4">
          <mxGeometry x="0.2454" y="1" relative="1" as="geometry">
            <mxPoint x="1" y="6" as="offset" />
          </mxGeometry>
        </mxCell>
        <mxCell id="lwbYK_OGMi3TOcyeufu5-6" value="&lt;font style=&quot;font-size: 14px;&quot; color=&quot;#ffffff&quot;&gt;&lt;b&gt;Syncore&lt;/b&gt;&lt;/font&gt;&lt;div&gt;&lt;font style=&quot;font-size: 10px;&quot; color=&quot;#ffffff&quot;&gt;sistema&lt;/font&gt;&lt;/div&gt;" style="whiteSpace=wrap;html=1;aspect=fixed;fillColor=#1168bd;" vertex="1" parent="1">
          <mxGeometry x="145" y="280" width="130" height="130" as="geometry" />
        </mxCell>
        <mxCell id="lwbYK_OGMi3TOcyeufu5-7" value="" style="endArrow=none;dashed=1;html=1;rounded=0;startArrow=blockThin;startFill=1;entryX=1;entryY=0.5;entryDx=0;entryDy=0;strokeColor=#707070;exitX=0;exitY=0.5;exitDx=0;exitDy=0;" edge="1" parent="1" source="lwbYK_OGMi3TOcyeufu5-10" target="lwbYK_OGMi3TOcyeufu5-6">
          <mxGeometry width="50" height="50" relative="1" as="geometry">
            <mxPoint x="440" y="345" as="sourcePoint" />
            <mxPoint x="400" y="310" as="targetPoint" />
          </mxGeometry>
        </mxCell>
        <mxCell id="lwbYK_OGMi3TOcyeufu5-8" value="&lt;font size=&quot;1&quot; color=&quot;#707070&quot;&gt;Envia email com&lt;/font&gt;" style="edgeLabel;html=1;align=center;verticalAlign=middle;resizable=0;points=[];" vertex="1" connectable="0" parent="lwbYK_OGMi3TOcyeufu5-7">
          <mxGeometry x="0.2454" y="1" relative="1" as="geometry">
            <mxPoint x="13" y="6" as="offset" />
          </mxGeometry>
        </mxCell>
        <mxCell id="lwbYK_OGMi3TOcyeufu5-10" value="&lt;font style=&quot;font-size: 14px;&quot; color=&quot;#ffffff&quot;&gt;&lt;b&gt;Sistema de envio&lt;/b&gt;&lt;/font&gt;&lt;div&gt;&lt;span style=&quot;font-size: 14px; color: rgb(255, 255, 255); background-color: initial;&quot;&gt;&lt;b&gt;de email&lt;/b&gt;&lt;/span&gt;&lt;div&gt;&lt;div style=&quot;&quot;&gt;&lt;font color=&quot;#ffffff&quot; style=&quot;font-size: 10px;&quot;&gt;sendgrid&lt;/font&gt;&lt;/div&gt;&lt;/div&gt;&lt;/div&gt;" style="whiteSpace=wrap;html=1;aspect=fixed;fillColor=#999999;" vertex="1" parent="1">
          <mxGeometry x="440" y="280" width="140" height="140" as="geometry" />
        </mxCell>
        <mxCell id="lwbYK_OGMi3TOcyeufu5-11" value="" style="endArrow=none;dashed=1;html=1;rounded=0;startArrow=blockThin;startFill=1;entryX=0.5;entryY=0;entryDx=0;entryDy=0;strokeColor=#707070;exitX=1;exitY=0.75;exitDx=0;exitDy=0;" edge="1" parent="1" source="lwbYK_OGMi3TOcyeufu5-1" target="lwbYK_OGMi3TOcyeufu5-10">
          <mxGeometry width="50" height="50" relative="1" as="geometry">
            <mxPoint x="485" y="190" as="sourcePoint" />
            <mxPoint x="320" y="190" as="targetPoint" />
          </mxGeometry>
        </mxCell>
        <mxCell id="lwbYK_OGMi3TOcyeufu5-12" value="&lt;font size=&quot;1&quot; color=&quot;#707070&quot;&gt;Envia email para&lt;/font&gt;" style="edgeLabel;html=1;align=center;verticalAlign=middle;resizable=0;points=[];" vertex="1" connectable="0" parent="lwbYK_OGMi3TOcyeufu5-11">
          <mxGeometry x="0.2454" y="1" relative="1" as="geometry">
            <mxPoint x="-21" y="-14" as="offset" />
          </mxGeometry>
        </mxCell>
        <mxCell id="lwbYK_OGMi3TOcyeufu5-13" value="&lt;font color=&quot;#ffffff&quot;&gt;Aluno&lt;/font&gt;" style="shape=actor;whiteSpace=wrap;html=1;fillColor=#08427b;" vertex="1" parent="1">
          <mxGeometry x="490" y="570" width="140" height="160" as="geometry" />
        </mxCell>
        <mxCell id="lwbYK_OGMi3TOcyeufu5-18" value="&lt;font style=&quot;font-size: 14px;&quot; color=&quot;#ffffff&quot;&gt;&lt;b&gt;Sistema de envio&lt;/b&gt;&lt;/font&gt;&lt;div&gt;&lt;span style=&quot;font-size: 14px; color: rgb(255, 255, 255); background-color: initial;&quot;&gt;&lt;b&gt;de email&lt;/b&gt;&lt;/span&gt;&lt;div&gt;&lt;div style=&quot;&quot;&gt;&lt;font color=&quot;#ffffff&quot; style=&quot;font-size: 10px;&quot;&gt;sendgrid&lt;/font&gt;&lt;/div&gt;&lt;/div&gt;&lt;/div&gt;" style="whiteSpace=wrap;html=1;aspect=fixed;fillColor=#999999;" vertex="1" parent="1">
          <mxGeometry x="840" y="920" width="140" height="140" as="geometry" />
        </mxCell>
        <mxCell id="lwbYK_OGMi3TOcyeufu5-22" value="" style="endArrow=none;dashed=1;html=1;rounded=0;startArrow=blockThin;startFill=1;entryX=1;entryY=0.5;entryDx=0;entryDy=0;strokeColor=#707070;exitX=0.5;exitY=1;exitDx=0;exitDy=0;" edge="1" parent="1" source="lwbYK_OGMi3TOcyeufu5-18" target="lwbYK_OGMi3TOcyeufu5-21">
          <mxGeometry width="50" height="50" relative="1" as="geometry">
            <mxPoint x="725" y="1150" as="sourcePoint" />
            <mxPoint x="560" y="1150" as="targetPoint" />
          </mxGeometry>
        </mxCell>
        <mxCell id="lwbYK_OGMi3TOcyeufu5-23" value="&lt;font size=&quot;1&quot; color=&quot;#707070&quot;&gt;Envia email com&lt;/font&gt;" style="edgeLabel;html=1;align=center;verticalAlign=middle;resizable=0;points=[];" vertex="1" connectable="0" parent="lwbYK_OGMi3TOcyeufu5-22">
          <mxGeometry x="0.2454" y="1" relative="1" as="geometry">
            <mxPoint x="63" y="-46" as="offset" />
          </mxGeometry>
        </mxCell>
        <mxCell id="lwbYK_OGMi3TOcyeufu5-24" value="" style="endArrow=none;dashed=1;html=1;rounded=0;startArrow=blockThin;startFill=1;entryX=0.5;entryY=0;entryDx=0;entryDy=0;strokeColor=#707070;exitX=1;exitY=0.75;exitDx=0;exitDy=0;" edge="1" parent="1" source="lwbYK_OGMi3TOcyeufu5-13" target="lwbYK_OGMi3TOcyeufu5-18">
          <mxGeometry width="50" height="50" relative="1" as="geometry">
            <mxPoint x="700" y="707" as="sourcePoint" />
            <mxPoint x="925" y="827" as="targetPoint" />
          </mxGeometry>
        </mxCell>
        <mxCell id="lwbYK_OGMi3TOcyeufu5-25" value="&lt;font size=&quot;1&quot; color=&quot;#707070&quot;&gt;Envia email para&lt;/font&gt;" style="edgeLabel;html=1;align=center;verticalAlign=middle;resizable=0;points=[];" vertex="1" connectable="0" parent="lwbYK_OGMi3TOcyeufu5-24">
          <mxGeometry x="0.2454" y="1" relative="1" as="geometry">
            <mxPoint x="-21" y="-14" as="offset" />
          </mxGeometry>
        </mxCell>
        <mxCell id="lwbYK_OGMi3TOcyeufu5-38" style="edgeStyle=orthogonalEdgeStyle;rounded=0;orthogonalLoop=1;jettySize=auto;html=1;entryX=0;entryY=0.5;entryDx=0;entryDy=0;dashed=1;strokeColor=#707070;" edge="1" parent="1" source="lwbYK_OGMi3TOcyeufu5-17" target="lwbYK_OGMi3TOcyeufu5-37">
          <mxGeometry relative="1" as="geometry" />
        </mxCell>
        <mxCell id="lwbYK_OGMi3TOcyeufu5-43" value="Serve arquivos&lt;div&gt;estáticos&lt;/div&gt;" style="edgeLabel;html=1;align=center;verticalAlign=middle;resizable=0;points=[];fontColor=#707070;" vertex="1" connectable="0" parent="lwbYK_OGMi3TOcyeufu5-38">
          <mxGeometry x="-0.1286" y="-3" relative="1" as="geometry">
            <mxPoint x="9" as="offset" />
          </mxGeometry>
        </mxCell>
        <mxCell id="lwbYK_OGMi3TOcyeufu5-17" value="&lt;font color=&quot;#ffffff&quot;&gt;&lt;span style=&quot;font-size: 14px;&quot;&gt;&lt;b&gt;Web App&lt;/b&gt;&lt;/span&gt;&lt;/font&gt;&lt;div&gt;&lt;font size=&quot;1&quot; color=&quot;#ffffff&quot;&gt;&lt;span style=&quot;font-size: 9px;&quot;&gt;C# Asp Net&lt;/span&gt;&lt;/font&gt;&lt;/div&gt;" style="whiteSpace=wrap;html=1;aspect=fixed;fillColor=#1168bd;" vertex="1" parent="1">
          <mxGeometry x="240" y="900" width="130" height="130" as="geometry" />
        </mxCell>
        <mxCell id="lwbYK_OGMi3TOcyeufu5-21" value="&lt;font color=&quot;#ffffff&quot;&gt;&lt;span style=&quot;font-size: 14px;&quot;&gt;&lt;b&gt;Web Api&lt;/b&gt;&lt;/span&gt;&lt;/font&gt;&lt;div&gt;&lt;font size=&quot;1&quot; color=&quot;#ffffff&quot;&gt;&lt;span style=&quot;font-size: 9px;&quot;&gt;C# Asp Net&lt;/span&gt;&lt;/font&gt;&lt;/div&gt;" style="whiteSpace=wrap;html=1;aspect=fixed;fillColor=#1168bd;" vertex="1" parent="1">
          <mxGeometry x="550" y="1180" width="130" height="130" as="geometry" />
        </mxCell>
        <mxCell id="lwbYK_OGMi3TOcyeufu5-37" value="&lt;font color=&quot;#ffffff&quot;&gt;&lt;span style=&quot;font-size: 14px;&quot;&gt;&lt;b&gt;Frontend&lt;/b&gt;&lt;/span&gt;&lt;/font&gt;&lt;div&gt;&lt;font style=&quot;font-size: 9px;&quot; color=&quot;#ffffff&quot;&gt;Javascript Vue&lt;/font&gt;&lt;/div&gt;" style="whiteSpace=wrap;html=1;aspect=fixed;fillColor=#1168bd;rounded=1;" vertex="1" parent="1">
          <mxGeometry x="550" y="900" width="130" height="130" as="geometry" />
        </mxCell>
        <mxCell id="lwbYK_OGMi3TOcyeufu5-39" value="" style="endArrow=none;dashed=1;html=1;rounded=0;startArrow=blockThin;startFill=1;entryX=0.5;entryY=1;entryDx=0;entryDy=0;strokeColor=#707070;exitX=0.5;exitY=0;exitDx=0;exitDy=0;" edge="1" parent="1" source="lwbYK_OGMi3TOcyeufu5-37" target="lwbYK_OGMi3TOcyeufu5-13">
          <mxGeometry width="50" height="50" relative="1" as="geometry">
            <mxPoint x="290" y="500" as="sourcePoint" />
            <mxPoint x="60" y="815" as="targetPoint" />
          </mxGeometry>
        </mxCell>
        <mxCell id="lwbYK_OGMi3TOcyeufu5-47" value="&lt;font style=&quot;font-size: 9px;&quot; color=&quot;#707070&quot;&gt;Faz posts&lt;br&gt;Controla presença&lt;/font&gt;&lt;div style=&quot;font-size: 9px;&quot;&gt;&lt;font color=&quot;#707070&quot;&gt;Conversa com outros alunos&lt;/font&gt;&lt;/div&gt;" style="edgeLabel;html=1;align=center;verticalAlign=middle;resizable=0;points=[];" vertex="1" connectable="0" parent="lwbYK_OGMi3TOcyeufu5-39">
          <mxGeometry x="0.3775" y="1" relative="1" as="geometry">
            <mxPoint as="offset" />
          </mxGeometry>
        </mxCell>
        <mxCell id="lwbYK_OGMi3TOcyeufu5-41" value="" style="endArrow=none;dashed=1;html=1;rounded=0;startArrow=blockThin;startFill=1;entryX=0;entryY=0.75;entryDx=0;entryDy=0;strokeColor=#707070;exitX=0.5;exitY=0;exitDx=0;exitDy=0;" edge="1" parent="1" source="lwbYK_OGMi3TOcyeufu5-17" target="lwbYK_OGMi3TOcyeufu5-13">
          <mxGeometry width="50" height="50" relative="1" as="geometry">
            <mxPoint x="312.5" y="810" as="sourcePoint" />
            <mxPoint x="297.5" y="640" as="targetPoint" />
          </mxGeometry>
        </mxCell>
        <mxCell id="lwbYK_OGMi3TOcyeufu5-46" value="&lt;font color=&quot;#707070&quot;&gt;Visita link no browser&lt;/font&gt;" style="edgeLabel;html=1;align=center;verticalAlign=middle;resizable=0;points=[];" vertex="1" connectable="0" parent="lwbYK_OGMi3TOcyeufu5-41">
          <mxGeometry x="0.1685" y="-1" relative="1" as="geometry">
            <mxPoint as="offset" />
          </mxGeometry>
        </mxCell>
        <mxCell id="lwbYK_OGMi3TOcyeufu5-44" value="" style="endArrow=none;dashed=1;html=1;rounded=0;startArrow=blockThin;startFill=1;entryX=0.5;entryY=1;entryDx=0;entryDy=0;strokeColor=#707070;" edge="1" parent="1" source="lwbYK_OGMi3TOcyeufu5-21" target="lwbYK_OGMi3TOcyeufu5-37">
          <mxGeometry width="50" height="50" relative="1" as="geometry">
            <mxPoint x="585" y="910" as="sourcePoint" />
            <mxPoint x="570" y="740" as="targetPoint" />
          </mxGeometry>
        </mxCell>
        <mxCell id="lwbYK_OGMi3TOcyeufu5-45" value="&lt;font color=&quot;#707070&quot;&gt;Faz requições&lt;/font&gt;" style="edgeLabel;html=1;align=center;verticalAlign=middle;resizable=0;points=[];" vertex="1" connectable="0" parent="lwbYK_OGMi3TOcyeufu5-44">
          <mxGeometry x="0.0902" relative="1" as="geometry">
            <mxPoint as="offset" />
          </mxGeometry>
        </mxCell>
        <mxCell id="lwbYK_OGMi3TOcyeufu5-48" value="&lt;font color=&quot;#ffffff&quot; style=&quot;font-size: 14px;&quot;&gt;Postgres&lt;/font&gt;" style="shape=cylinder3;whiteSpace=wrap;html=1;boundedLbl=1;backgroundOutline=1;size=15;fillColor=#438dd5;" vertex="1" parent="1">
          <mxGeometry x="240" y="1195" width="135" height="115" as="geometry" />
        </mxCell>
        <mxCell id="lwbYK_OGMi3TOcyeufu5-50" value="" style="endArrow=none;dashed=1;html=1;rounded=0;startArrow=none;startFill=0;entryX=0.5;entryY=1;entryDx=0;entryDy=0;strokeColor=#707070;exitX=0;exitY=0.5;exitDx=0;exitDy=0;" edge="1" parent="1" source="lwbYK_OGMi3TOcyeufu5-21" target="lwbYK_OGMi3TOcyeufu5-17">
          <mxGeometry width="50" height="50" relative="1" as="geometry">
            <mxPoint x="-40" y="1190" as="sourcePoint" />
            <mxPoint x="145" y="980" as="targetPoint" />
          </mxGeometry>
        </mxCell>
        <mxCell id="lwbYK_OGMi3TOcyeufu5-51" value="&lt;font color=&quot;#707070&quot;&gt;Mesmo serviço&lt;/font&gt;" style="edgeLabel;html=1;align=center;verticalAlign=middle;resizable=0;points=[];" vertex="1" connectable="0" parent="lwbYK_OGMi3TOcyeufu5-50">
          <mxGeometry x="0.1685" y="-1" relative="1" as="geometry">
            <mxPoint x="29" y="21" as="offset" />
          </mxGeometry>
        </mxCell>
        <mxCell id="lwbYK_OGMi3TOcyeufu5-52" value="" style="endArrow=none;dashed=1;html=1;rounded=0;startArrow=blockThin;startFill=1;entryX=-0.012;entryY=0.62;entryDx=0;entryDy=0;strokeColor=#707070;entryPerimeter=0;exitX=1;exitY=0.5;exitDx=0;exitDy=0;exitPerimeter=0;" edge="1" parent="1" source="lwbYK_OGMi3TOcyeufu5-48" target="lwbYK_OGMi3TOcyeufu5-21">
          <mxGeometry width="50" height="50" relative="1" as="geometry">
            <mxPoint x="585" y="1190" as="sourcePoint" />
            <mxPoint x="585" y="1040" as="targetPoint" />
          </mxGeometry>
        </mxCell>
        <mxCell id="lwbYK_OGMi3TOcyeufu5-53" value="&lt;font color=&quot;#707070&quot;&gt;Lé e atualiza dados&lt;/font&gt;" style="edgeLabel;html=1;align=center;verticalAlign=middle;resizable=0;points=[];" vertex="1" connectable="0" parent="lwbYK_OGMi3TOcyeufu5-52">
          <mxGeometry x="0.0902" relative="1" as="geometry">
            <mxPoint as="offset" />
          </mxGeometry>
        </mxCell>
        <mxCell id="lwbYK_OGMi3TOcyeufu5-54" value="&lt;font color=&quot;#1168bd&quot; style=&quot;font-size: 14px;&quot;&gt;Syncore&lt;/font&gt;" style="text;html=1;align=center;verticalAlign=middle;resizable=0;points=[];autosize=1;strokeColor=none;fillColor=none;" vertex="1" parent="1">
          <mxGeometry x="210" y="1320" width="70" height="30" as="geometry" />
        </mxCell>
        <mxCell id="lwbYK_OGMi3TOcyeufu5-56" value="" style="endArrow=none;dashed=1;html=1;rounded=0;startArrow=blockThin;startFill=1;entryX=0.5;entryY=1;entryDx=0;entryDy=0;strokeColor=#707070;exitX=0.115;exitY=0;exitDx=0;exitDy=0;exitPerimeter=0;" edge="1" parent="1" source="lwbYK_OGMi3TOcyeufu5-29" target="lwbYK_OGMi3TOcyeufu5-6">
          <mxGeometry width="50" height="50" relative="1" as="geometry">
            <mxPoint x="30" y="500" as="sourcePoint" />
            <mxPoint x="260" y="620" as="targetPoint" />
          </mxGeometry>
        </mxCell>
        <mxCell id="lwbYK_OGMi3TOcyeufu5-57" value="&lt;font size=&quot;1&quot; color=&quot;#707070&quot;&gt;Zoom&lt;/font&gt;" style="edgeLabel;html=1;align=center;verticalAlign=middle;resizable=0;points=[];" vertex="1" connectable="0" parent="lwbYK_OGMi3TOcyeufu5-56">
          <mxGeometry x="0.2454" y="1" relative="1" as="geometry">
            <mxPoint x="-1" y="-24" as="offset" />
          </mxGeometry>
        </mxCell>
      </root>
    </mxGraphModel>
  </diagram>
</mxfile>
